:SAMPLES-PER-SECOND 30
:FULLY-SPECIFIED
:DEGREES
34
root  81.461 40.3273 -6.50788 -179.947 -87.1507 -178.279
RightUpLeg  0.244385 -7.76304 -4.82965
RightLeg  4.19781 -3.68233 3.63912
RightFoot  -4.82492 0.0295218 -1.09154
RightToes  1.74622e-010 0 -3.6325e-017
Spine  -0.30018 -0.226059 0.96865
Spine1  8.3243 -0.500894 0.820355
HEad  -8.6579 4.66873 -2.52044
LeftShoulder1  6.23887 -8.97223 -43.4793
LeftArm  -15.8695 11.61 -29.4658
LeftForeArm  24.6766 -11.5389 -3.73028
LeftHand  -0.244104 0.0205437 5.32207
RightShoulder  4.76599 7.5141 37.2361
RightArm  -10.289 -15.5612 32.5111
RightForeArm  6.54507 16.4804 5.0108
RightHand  -0.569541 0.119967 -11.9989
LeftUpLeg  0.876146 5.23884 2.87219
LeftLeg  2.4253 11.9739 -3.9724
LeftFoot  -4.99804 0.0495227 -0.347581
LeftToes  -6.36679e-011 4.33698e-011 -8.22343e-012
35
root  81.3773 40.3006 -6.5627 -177.291 -86.8078 179.099
RightUpLeg  -0.0134484 -7.77671 -4.8678
RightLeg  4.92382 -3.37601 3.47734
RightFoot  -5.59565 0.00778267 -0.912961
RightToes  1.74622e-010 0 -3.6325e-017
Spine  0.00300665 -0.237559 0.84569
Spine1  8.69577 -0.584931 1.08577
HEad  -9.76119 4.87554 -2.70981
LeftShoulder1  6.72317 -9.39859 -45.3914
LeftArm  -15.9783 11.9447 -33.7091
LeftForeArm  24.4739 -12.2726 -3.81207
LeftHand  -0.244104 0.0205437 5.32207
RightShoulder  5.14811 7.93259 38.9234
RightArm  -8.21554 -16.1367 36.2245
RightForeArm  4.43369 15.2972 5.71186
RightHand  -0.347189 -1.35435 -9.90051
LeftUpLeg  0.865181 5.38471 2.88872
LeftLeg  2.79316 12.1706 -4.02965
LeftFoot  -5.36966 0.053034 -0.40215
LeftToes  -6.36679e-011 4.33698e-011 -8.22343e-012
36
root  81.2921 40.2582 -6.62826 -176.667 -86.6064 178.315
RightUpLeg  -0.207184 -7.69864 -4.64525
RightLeg  5.94207 -3.33844 2.99978
RightFoot  -6.58813 -0.00481876 -0.965453
RightToes  1.74622e-010 0 -3.6325e-017
Spine  0.628566 -0.370229 0.792259
Spine1  8.9739 -0.806604 1.34235
HEad  -10.6324 5.30649 -3.01585
LeftShoulder1  7.33852 -10.0479 -47.2341
LeftArm  -15.0295 12.2542 -36.6565
LeftForeArm  27.0917 -14.1384 -3.82869
LeftHand  -0.244104 0.0205437 5.32207
RightShoulder  5.58343 8.4358 40.5932
RightArm  -9.37772 -16.4617 38.5416
RightForeArm  -5.71813 12.9613 6.93013
RightHand  -0.224818 -2.91048 -9.98829
LeftUpLeg  0.966171 5.61866 3.04366
LeftLeg  3.3865 12.107 -4.03794
LeftFoot  -5.96343 0.0613287 -0.554478
LeftToes  -6.36679e-011 4.33698e-011 -8.22343e-012
37
root  81.1847 40.2063 -6.71334 -176.21 -86.5401 177.628
RightUpLeg  -0.342417 -7.68557 -4.29845
RightLeg  7.10869 -3.30722 2.35187
RightFoot  -7.78747 -0.0209892 -1.0219
RightToes  1.74622e-010 0 -3.6325e-017
Spine  1.24564 -0.55878 0.63219
Spine1  9.32835 -1.13379 1.74762
HEad  -11.6822 5.51918 -3.48231
LeftShoulder1  7.83751 -10.6401 -48.3603
LeftArm  -10.6865 11.9868 -37.2282
LeftForeArm  31.882 -16.6828 -3.90475
LeftHand  -0.244104 0.0205437 5.32207
RightShoulder  5.78845 8.67155 41.3249
RightArm  -13.3822 -17.0973 39.2751
RightForeArm  -16.1175 11.5832 7.34657
RightHand  -0.407334 -1.98616 -13.528
LeftUpLeg  1.1279 5.82262 3.22832
LeftLeg  4.07184 11.8583 -3.96362
LeftFoot  -6.63369 0.0783751 -0.937767
LeftToes  -6.36679e-011 4.33698e-011 -8.22343e-012
38
root  81.0228 40.1536 -6.82839 -173.699 -86.4777 174.983
RightUpLeg  -0.391245 -7.85803 -4.15589
RightLeg  8.17756 -3.07068 1.86686
RightFoot  -9.22431 -0.0497621 -0.654953
RightToes  1.74622e-010 0 -3.6325e-017
Spine  1.64065 -0.745661 0.220675
Spine1  9.63204 -1.48963 2.30342
HEad  -11.9833 5.85589 -3.72661
LeftShoulder1  7.99659 -10.9421 -48.309
LeftArm  -3.04765 11.0943 -35.6713
LeftForeArm  33.8935 -18.8363 -3.95359
LeftHand  -0.244104 0.0205437 5.32207
RightShoulder  5.69251 8.56432 40.9709
RightArm  -14.3473 -17.9968 38.5297
RightForeArm  -13.5114 12.7841 6.7144
RightHand  -0.695801 -0.031614 -15.1873
LeftUpLeg  1.22646 5.84641 3.24145
LeftLeg  4.81151 11.7895 -3.74545
LeftFoot  -7.30139 0.0900416 -1.3057
LeftToes  -6.36679e-011 4.33698e-011 -8.22343e-012
39
root  80.8052 40.1011 -6.96276 -171.067 -86.3527 172.323
RightUpLeg  -0.270039 -8.13134 -4.2163
RightLeg  8.95286 -2.76521 1.68134
RightFoot  -10.7624 -0.0735362 0.19424
RightToes  1.74622e-010 0 -3.6325e-017
Spine  1.99496 -0.917934 -0.0612802
Spine1  9.6606 -1.76199 2.68001
HEad  -12.3049 6.35598 -3.81829
LeftShoulder1  7.94146 -11.0835 -47.5025
LeftArm  4.05304 10.1703 -33.3388
LeftForeArm  31.0147 -20.4695 -3.8731
LeftHand  -0.244104 0.0205437 5.32207
RightShoulder  5.52507 8.40128 40.2557
RightArm  -7.8669 -18.6908 36.7834
RightForeArm  -3.18024 16.1169 5.94116
RightHand  -0.557396 -0.537703 -13.2177
LeftUpLeg  1.27042 5.82722 3.18581
LeftLeg  5.61214 11.8657 -3.39846
LeftFoot  -8.07782 0.0930843 -1.56542
LeftToes  -6.36679e-011 4.33698e-011 -8.22343e-012
